<?xml version="1.0" encoding="UTF-8"?><svg id="_레이어_2" xmlns="http://www.w3.org/2000/svg" xmlns:xlink="http://www.w3.org/1999/xlink" viewBox="0 0 408 435.2"><defs><style>.cls-1{fill:none;}.cls-2{fill:#c28f2b;}.cls-3{clip-path:url(#clippath);}</style><clipPath id="clippath"><rect class="cls-1" width="408" height="435.2"/></clipPath></defs><g id="katman_1"><g class="cls-3"><path class="cls-2" d="M24.6,132.6C8.9,161,0,193.5,0,228s8.9,67.1,24.6,95.5v-190.9Z"/><path class="cls-2" d="M204,27.5c-16.5,0-32.6,2-48,5.6v31.6c15.3-4.3,31.4-6.7,48-6.7,95.5,0,172.9,75.9,172.9,169.5s-15.8,80.7-41.7,110.4l-4.9,17.3-10.9,38.3c53.5-36.1,88.7-96.8,88.7-165.4,0-110.8-91.4-200.6-204-200.6h-.1Z"/><path class="cls-2" d="M156,332.1h159.9c26.5-27.2,42.8-64,42.8-104.6,0-83.7-69.2-151.6-154.6-151.6s-32.9,2.7-48,7.5v248.7h-.1Z"/><path class="cls-2" d="M137.5,0H21.1l22,44.9v345.5l-22,44.8h267.1l24.2-84.9h-175V0h.1Z"/></g></g></svg>