<?xml version="1.0" encoding="UTF-8"?><svg id="_레이어_2" xmlns="http://www.w3.org/2000/svg" xmlns:xlink="http://www.w3.org/1999/xlink" viewBox="0 0 187.37 31.46"><defs><style>.cls-1{fill:url(#_무제_그라디언트_188-5);}.cls-2{fill:url(#_무제_그라디언트_188-3);}.cls-3{fill:url(#_무제_그라디언트_188-4);}.cls-4{fill:url(#_무제_그라디언트_188-2);}.cls-5{fill:url(#_무제_그라디언트_189);}.cls-6{fill:url(#_무제_그라디언트_188);}.cls-7{fill:url(#_무제_그라디언트_228);}.cls-8{fill:url(#_무제_그라디언트_215);}</style><linearGradient id="_무제_그라디언트_189" x1="277.26" y1="5.69" x2="277.26" y2="23.19" gradientTransform="translate(371.72) rotate(-180) scale(1 -1)" gradientUnits="userSpaceOnUse"><stop offset="0" stop-color="#f7931e"/><stop offset=".65" stop-color="#f15a24"/><stop offset="1" stop-color="#e82d24"/></linearGradient><linearGradient id="_무제_그라디언트_215" x1="93.69" y1="24.94" x2="93.69" y2="31.46" gradientUnits="userSpaceOnUse"><stop offset="0" stop-color="#e82d24"/><stop offset="1" stop-color="#b92d24"/></linearGradient><linearGradient id="_무제_그라디언트_188" x1="24.39" y1="0" x2="24.39" y2="3.64" gradientUnits="userSpaceOnUse"><stop offset="0" stop-color="#f7931e" stop-opacity="0"/><stop offset="1" stop-color="#f7931e"/></linearGradient><linearGradient id="_무제_그라디언트_188-2" x1="156.16" y1="0" x2="156.16" y2="3.64" gradientTransform="translate(324.46) rotate(-180) scale(1 -1)" xlink:href="#_무제_그라디언트_188"/><linearGradient id="_무제_그라디언트_188-3" x1="36.93" y1="2.73" x2="36.93" y2="4.95" gradientTransform="translate(1.62) skewX(-25)" xlink:href="#_무제_그라디언트_188"/><linearGradient id="_무제_그라디언트_188-4" x1="95.04" y1="2.29" x2="95.04" y2="5.17" xlink:href="#_무제_그라디언트_188"/><linearGradient id="_무제_그라디언트_188-5" x1="117.8" y1="1.38" x2="117.8" y2="3.71" gradientTransform="translate(-.45) skewX(10)" xlink:href="#_무제_그라디언트_188"/><linearGradient id="_무제_그라디언트_228" x1="96.45" y1="5.69" x2="96.45" y2="10.67" gradientUnits="userSpaceOnUse"><stop offset="0" stop-color="#fff" stop-opacity=".9"/><stop offset="1" stop-color="#fff" stop-opacity="0"/></linearGradient></defs><g id="_레이어_1-2"><path class="cls-5" d="M33.09,5.69l-6.26,13.64h-3.41l-1.86,3.86H7.56l2.23-3.86h-3.41l2.2-3.67h6.65l-2.03,3.67h6.82l5.3-10.47h-6.33l1.75-3.16h12.35ZM54.71,5.69l-4.01,13.64h-3.41l-1.23,3.86h-14l1.59-3.86h-3.41l5.94-13.64h6.18l-5.29,13.64h6.82l4.65-13.64h6.18ZM72.75,8.85h3.16l-1.36,10.47h-3.41l-.59,3.86h-17.5l4.74-17.5h15.44l-.48,3.16ZM69.59,8.85h-6.33l-2.34,10.47h6.82l1.85-10.47ZM81.38,19.32h-3.41l1.11-10.47h3.16l.26-3.16h15.44l.11,3.16h-12.65l-.62,10.47h6.82l.04-3.67h-3.32l.12-3.49h9.72l.39,11.02h-17.5l.32-3.86ZM119.56,5.69l.63,3.16h-12.65l.35,3.32h9.72l.62,3.49h-9.97l.39,3.67h13.64l.77,3.86h-21l-1.03-17.5h18.53ZM131.52,15.66l2.04,7.53h-7l-1.68-7.53h6.65ZM139.33,19.32h-3.41l-3.08-10.47h3.16l-1-3.16h15.44l1.38,3.16h-12.65l3.57,10.47h6.82l-1.42-3.67h-3.32l-1.27-3.49h9.72l4.8,11.02h-17.5l-1.23-3.86ZM163.2,19.32h-3.41l-4.81-10.47h3.16l-1.53-3.16h15.44l1.9,3.16h-12.65l5.3,10.47h6.82l-2.03-3.67h-3.32l-1.85-3.49h9.72l6.61,11.02h-17.5l-1.86-3.86ZM12.98,10.67h-4.17c-.81,1.21-1.62,2.42-2.43,3.64h4.3l2.3-3.64ZM174.56,7.22h2.92c.57.88,1.14,1.77,1.7,2.65h-3.01l-1.61-2.65Z"/><path class="cls-8" d="M184.74,27.02H2.63l1.33-2.09h179.45l1.33,2.09ZM185.57,28.68H1.8l-1.8,2.77h187.37l-1.8-2.77Z"/><polygon class="cls-6" points="25.16 3.64 21.52 3.64 23.62 0 27.26 0 25.16 3.64"/><polygon class="cls-4" points="167.53 3.64 171.17 3.64 169.07 0 165.43 0 167.53 3.64"/><polygon class="cls-2" points="37.35 4.95 35.13 4.95 36.16 2.73 38.38 2.73 37.35 4.95"/><polygon class="cls-3" points="96.48 5.17 93.59 5.17 93.69 2.29 96.38 2.29 96.48 5.17"/><polygon class="cls-1" points="119.17 3.71 116.84 3.71 116.43 1.38 118.76 1.38 119.17 3.71"/><path class="cls-7" d="M40.42,10.67h-6.41l.57-1.32h6.35l-.51,1.32ZM79.02,9.36l-.14,1.32h6.41l.08-1.32h-6.35ZM53.63,9.36h-6.35l-.45,1.32h6.41l.39-1.32ZM30.8,10.67l.6-1.32h-6.35l-.67,1.32h6.41ZM75.85,9.36h-6.35l-.23,1.32h6.41l.17-1.32ZM161.56,9.36h-6.35l.6,1.32h6.41l-.67-1.32ZM139.34,9.36h-6.35l.39,1.32h6.41l-.45-1.32ZM107.6,9.36h-6.35l.08,1.32h6.41l-.14-1.32ZM63.15,9.36h-6.35l-.36,1.32h6.41l.29-1.32ZM32.39,7.22h-12.5l-.49.88h12.58l.4-.88ZM101.12,7.22l.05.88h18.87l-.18-.88h-18.75ZM41.76,7.22h-6.25l-.38.88h6.29l.34-.88ZM57.38,7.22l-.24.88h15.72l.13-.88h-15.62ZM54.26,7.22h-6.25l-.3.88h6.29l.26-.88ZM172.98,7.22h-15.62l.42.88h15.72l-.53-.88ZM82.37,7.22l-.07.88h15.72l-.03-.88h-15.62ZM151.11,7.22h-15.62l.28.88h15.72l-.38-.88ZM57.79,5.69l-.14.52h15.5l.08-.52h-15.44ZM33.09,5.69h-12.35l-.29.52h12.4l.24-.52ZM42.35,5.69h-6.18l-.22.52h6.2l.2-.52ZM101.03,5.69l.03.52h18.6l-.1-.52h-18.53ZM150.44,5.69h-15.44l.16.52h15.5l-.22-.52ZM54.71,5.69h-6.18l-.18.52h6.2l.15-.52ZM172.06,5.69h-15.44l.25.52h15.5l-.31-.52ZM82.5,5.69l-.04.52h15.5l-.02-.52h-15.44Z"/></g></svg>