<?xml version="1.0" encoding="UTF-8"?><svg id="_레이어_2" xmlns="http://www.w3.org/2000/svg" viewBox="0 0 216.44 177.8"><defs><style>.cls-1{fill:#ff4655;}</style></defs><g id="_레이어_1-2"><path class="cls-1" d="M.69.22c1.33-.79,2.18.81,2.9,1.66,46.24,57.85,92.54,115.66,138.78,173.52.95.82.23,2.58-1.05,2.4-22.14.03-44.29,0-66.43,0-1.77.02-3.47-.86-4.56-2.24C47.36,146.85,24.4,118.13,1.42,89.43c-.98-1.16-1.48-2.66-1.42-4.17C0,57.53.02,29.79,0,2.06.01,1.41-.01.56.69.22Z"/><path class="cls-1" d="M214.56.08c.95-.36,1.99.52,1.85,1.51.03,27.74,0,55.49.02,83.23.06,1.57-.28,3.2-1.3,4.43-6.98,8.73-13.97,17.46-20.95,26.19-1.16,1.51-3.07,2.35-4.97,2.25-21.99-.02-43.99.01-65.99-.02-1.3.2-2.04-1.55-1.08-2.4C152.64,77.13,183.16,38.98,213.68.83c.23-.33.53-.58.88-.75Z"/></g></svg>